# xmcd CD database file
# Copyright (C) 1995-1998 Ti Kan
#
# Track frame offsets:
#	150
#	17367
#	36807
#	50523
#	64366
#	77223
#	98313
#	111283
#	128925
#	145610
#	159689
#	175059
#	188564
#	201139
#	212865
#	224941
#
# Disc length: 3202 seconds
#
# Revision: 1
# Processed by: cddbd v1.4b41PL1 Copyright (c) Steve Scherf et al.
# Submitted via: CDex 1.30Release
#
DISCID=e50c8010
DTITLE=Dr. Hook - The Complete Collection (1 of 4)
DYEAR=2000
DGENRE=Country
TTITLE0=Sylvia's Mother
TTITLE1=Carry Me, Carrie
TTITLE2=Roland The Roadie and Gertrud The Groupie
TTITLE3=Life Ain't Easy
TTITLE4=Freakin' At The Freakers Ball
TTITLE5=Queen Of The Silver Dollar
TTITLE6=Cover Of The Rolling Stone
TTITLE7=Ballad Of Lucy Jordan
TTITLE8=Wonderful Soup Stone
TTITLE9=Everybody's Making It Big But Me
TTITLE10=I Got Stoned And Missed It
TTITLE11=The Millionaire
TTITLE12=Only Sixteen
TTITLE13=Everybody Loves Me
TTITLE14=Up On The Mountain
TTITLE15=Cooky And Lila
EXTD=YEAR: 2000 ID3G:   2
EXTT0=
EXTT1=
EXTT2=
EXTT3=
EXTT4=
EXTT5=
EXTT6=
EXTT7=
EXTT8=
EXTT9=
EXTT10=
EXTT11=
EXTT12=
EXTT13=
EXTT14=
EXTT15=
PLAYORDER=
